<svg width="180" height="47" viewBox="0 0 180 47" fill="none" xmlns="http://www.w3.org/2000/svg">
<path d="M41.071 19.3864V27.6672C41.071 30.7669 41.4558 32.1873 44.8577 32.1873V32.4828H31.7393V32.1873C35.6354 32.1873 35.1736 28.3405 35.1736 25.2427V16.4084C35.1736 13.3108 35.8687 7.18437 31.9706 7.18437V6.88561H44.5371V7.18424C41.3024 7.18424 41.071 8.99793 41.071 12.0936V18.5855L41.633 18.6137C46.8858 13.7846 47.4761 12.9314 47.8341 12.3954C50.4639 8.45701 47.9794 7.28956 46.5269 7.28956V6.85015H57.229V7.28943C55.4029 7.28943 51.9625 9.9093 49.9311 11.4379L42.0474 18.7397C52.807 19.2099 52.5755 24.3805 53.7786 28.2365C54.457 30.4104 54.8962 31.763 57.4762 32.2238V32.483C57.4762 32.483 47.8905 32.4924 47.8905 32.483C46.4222 24.9867 45.727 18.7454 41.071 19.3866V19.3864ZM66.4594 20.4446C66.4594 23.9868 67.0802 24.9844 69.3183 24.9844V25.2426H58.1502V24.9844C60.4302 24.9844 60.6085 22.5472 60.6085 20.4446V11.113C60.6085 8.649 60.0441 7.30571 57.7642 7.30571V6.86027H66.4594V20.4447V20.4446ZM63.4424 0C65.1412 0 66.5533 1.29956 66.5533 2.86676C66.5533 4.43409 65.1412 5.73457 63.4423 5.73457C61.7415 5.73457 60.3307 4.43396 60.3307 2.86676C60.3307 1.29969 61.7415 0 63.4424 0ZM78.1175 9.13279C80.0702 6.54614 81.3918 6.48692 83.631 6.48692C88.9684 6.48692 89.4177 10.2545 89.4177 13.447L89.4333 20.4446C89.4333 23.8817 89.8193 24.9844 91.8939 24.9844V25.2426H81.2684V24.9844C83.1309 24.9844 83.1309 23.4891 83.1309 20.4446V13.3316C83.1309 10.7684 83.4365 7.54918 81.3081 7.54918C78.8701 7.54918 78.7786 9.34527 78.1174 10.3763V20.4445C78.1174 23.4537 78.3102 24.9843 80.1771 24.9843V25.2425H69.7436V24.9843C71.8136 24.9843 72.1646 23.3808 72.1646 20.4445V11.1129C72.1646 8.5429 71.6612 7.30151 69.3791 7.30151V6.86027H78.1172L78.1175 9.13279ZM133.352 6.86027H137.449L136.75 8.14551H133.352V19.1846C133.352 24.7369 136.84 24.274 138.296 23.0659L138.375 23.4134C135.248 25.7369 133.126 25.2394 132.325 25.2394C129.3 25.2394 127.404 23.2739 127.404 20.6341V8.14551H124.029V7.99449C126.659 7.15298 130.993 3.90644 133.002 1.20921H133.352V6.86027Z" fill="black"/>
<path d="M136.219 16.2409C136.219 11.8261 140.508 6.48706 145.79 6.48706C150.609 6.48706 155.214 11.2194 155.214 15.9206C155.214 21.4573 150.034 25.5664 145.79 25.5664C140.632 25.5661 136.219 21.3134 136.219 16.2409ZM149.165 15.7413C149.165 10.1588 148.95 6.86028 145.79 6.86028C142.325 6.86028 142.573 11.1131 142.573 15.7413C142.573 21.3251 142.562 25.228 145.79 25.228C149.413 25.228 149.165 21.3251 149.165 15.7413" fill="black"/>
<path d="M162.63 9.13281C164.582 6.54616 165.903 6.48694 168.137 6.48694C173.476 6.48694 173.928 10.2546 173.928 13.447L173.939 20.4446C173.939 23.8817 174.333 24.9844 176.399 24.9844V25.2426H165.778V24.9844C167.641 24.9844 167.641 23.489 167.641 20.4446V13.3316C167.641 10.7684 167.945 7.5492 165.812 7.5492C163.385 7.5492 163.295 9.34529 162.629 10.3763V20.4445C162.629 23.4537 162.821 24.9842 164.683 24.9842V25.2424H154.254V24.9842C156.331 24.9842 156.67 23.3808 156.67 20.4445V11.1129C156.67 8.54291 156.173 7.30153 153.893 7.30153V6.86029H162.629V9.13294L162.63 9.13281ZM102.113 22.434C101.506 23.1677 100.646 25.5516 97.427 25.5516C93.6986 25.5516 90.8838 22.4195 90.8838 16.1678C90.8838 11.0879 94.4267 6.57427 98.5023 6.57427C101.39 6.57427 102.503 8.95185 102.503 8.95185V7.01328H111.411V7.41065C111.411 7.41065 108.484 6.8662 108.484 10.7257V24.8865C108.198 28.7323 106.382 31.37 99.1658 33.2462L99.2165 32.803C103.364 30.0165 102.473 25.9844 102.113 22.434H102.113ZM102.629 15.3011C102.629 11.1462 102.288 7.09456 99.3894 7.09456C97.3659 7.09456 96.8465 10.3618 96.8465 16.2805C96.8465 21.2489 97.2992 24.5726 99.35 24.5726C101.159 24.5726 102.629 20.8066 102.629 16.7986V15.3011Z" fill="black"/>
<path d="M109.511 19.378H112.361C111.977 25.13 116.32 25.1364 117.37 25.1364C119.255 25.1364 120.97 23.767 120.97 22.2456C120.97 17.5667 110.397 19.5664 110.397 12.4596C110.397 9.23076 113.058 6.53775 117.042 6.53775C123.509 6.53775 124.266 10.1142 124.266 11.3596H121.851C122.076 10.4703 121.681 6.80013 117.573 6.80013C114.21 6.80013 114.345 9.32952 114.345 9.50036C114.345 14.037 125.778 12.3952 125.778 19.0817C125.778 22.4559 122.697 25.2706 118.555 25.481C111.398 25.8419 109.511 21.0647 109.511 19.378H109.511ZM171.907 5.30477C171.907 4.263 172.833 3.40875 173.973 3.40875C175.112 3.40875 176.038 4.263 176.038 5.30477C176.038 6.36099 175.113 7.21432 173.973 7.21432C172.833 7.21432 171.907 6.36099 171.907 5.3049L171.907 5.30477ZM175.711 5.30477C175.711 4.3829 174.977 3.65866 173.973 3.65866C172.968 3.65866 172.235 4.38303 172.235 5.30477C172.235 6.24018 172.968 6.96231 173.973 6.96231C174.977 6.96231 175.711 6.24018 175.711 5.30477ZM175 6.37005H174.661L174.007 5.39328H173.487V6.37005H173.205V4.24658H174.21C174.83 4.24658 175.033 4.45867 175.033 4.80825C175.033 5.2269 174.718 5.38081 174.311 5.39315L175 6.37018V6.37005ZM173.928 5.18606C174.255 5.18606 174.729 5.23701 174.729 4.80628C174.729 4.47219 174.436 4.43162 174.142 4.43162H173.488V5.18593H173.928V5.18606ZM58.8271 26.7023H63.8714V27.3829H61.7765V32.4326H60.9198V27.3829H58.8271V26.7023ZM70.2684 32.4325V26.7022H74.8V27.4003H71.0889V29.1412H74.52V29.8061H71.0889V31.7477H74.8641V32.4323L70.2684 32.4325ZM84.134 26.5454C84.9207 26.5454 85.5314 26.7367 85.9658 27.1173C86.4006 27.5003 86.642 27.9374 86.688 28.4224H85.8676C85.775 28.051 85.5901 27.7606 85.3123 27.5409C85.0337 27.3277 84.6462 27.2208 84.1443 27.2208C83.5292 27.2208 83.036 27.4193 82.6588 27.8139C82.2828 28.2122 82.0923 28.8199 82.0923 29.6388C82.0923 30.309 82.2629 30.8542 82.6036 31.2724C82.9454 31.6896 83.4497 31.8988 84.1249 31.8988C84.7468 31.8988 85.2189 31.6782 85.5435 31.238C85.7151 31.006 85.8438 30.7022 85.9272 30.3245H86.748C86.6758 30.9281 86.4306 31.4338 86.0201 31.8428C85.5291 32.334 84.8633 32.5808 84.0235 32.5808C83.2999 32.5808 82.6939 32.3788 82.2029 31.977C81.5585 31.4434 81.2324 30.6179 81.2324 29.5065C81.2324 28.6606 81.4787 27.9677 81.9626 27.4256C82.4896 26.8397 83.2085 26.5452 84.134 26.5452V26.5454ZM93.3384 32.4325V26.7022H94.1905V29.0694H97.422V26.7022H98.2732V32.4325H97.422V29.75H94.1905V32.4326H93.3384V32.4325ZM108.761 32.4325V26.7022H109.754L112.889 31.342V26.7022H113.691V32.4325H112.752L109.565 27.7906V32.4325H108.761H108.761ZM122.325 31.2525C121.975 30.8174 121.806 30.2807 121.806 29.6468C121.806 28.854 122.009 28.2515 122.415 27.8457C122.821 27.438 123.352 27.2359 123.984 27.2359C124.65 27.2359 125.18 27.4409 125.553 27.8515C125.936 28.2606 126.128 28.8027 126.128 29.4782C126.128 30.1159 125.959 30.6811 125.632 31.1701C125.304 31.6592 124.762 31.9049 124.029 31.9049C123.239 31.905 122.675 31.6895 122.325 31.2525ZM121.568 27.6057C121.151 28.1572 120.937 28.8222 120.937 29.5961C120.937 30.4536 121.185 31.1651 121.67 31.7261C122.212 32.3057 122.968 32.6011 123.927 32.6011C124.943 32.6011 125.734 32.2684 126.286 31.6002C126.761 31.0351 126.998 30.3244 126.998 29.4683C126.998 28.6754 126.794 28.0293 126.377 27.5203C125.846 26.8711 125.034 26.5454 123.939 26.5454C122.889 26.5454 122.099 26.8978 121.569 27.6057H121.568ZM134.244 32.4325V26.7022H135.079V31.7478H138.228V32.4325H134.243H134.244ZM146.196 31.2525C145.846 30.8174 145.665 30.2807 145.665 29.6468C145.665 28.854 145.88 28.2515 146.275 27.8457C146.693 27.438 147.212 27.2359 147.855 27.2359C148.521 27.2359 149.04 27.4409 149.424 27.8515C149.808 28.2606 150 28.8027 150 29.4782C150 30.1159 149.83 30.6811 149.503 31.1701C149.165 31.6592 148.634 31.9049 147.889 31.9049C147.11 31.905 146.546 31.6895 146.196 31.2525ZM145.428 27.6057C145.011 28.1572 144.796 28.8222 144.796 29.5961C144.796 30.4536 145.045 31.1651 145.53 31.7261C146.083 32.3057 146.828 32.6011 147.787 32.6011C148.814 32.6011 149.593 32.2684 150.158 31.6002C150.62 31.0351 150.857 30.3244 150.857 29.4683C150.857 28.6754 150.654 28.0293 150.236 27.5203C149.718 26.8711 148.905 26.5454 147.81 26.5454C146.749 26.5454 145.959 26.8978 145.428 27.6057ZM160.79 26.5513C161.376 26.5513 161.885 26.6577 162.302 26.8665C162.923 27.1661 163.307 27.6875 163.442 28.4377H162.607C162.506 28.0185 162.291 27.7135 161.975 27.5229C161.659 27.3316 161.253 27.2359 160.767 27.2359C160.192 27.2359 159.706 27.4347 159.311 27.831C158.916 28.2294 158.724 28.8217 158.724 29.6113C158.724 30.2909 158.882 30.8485 159.209 31.2752C159.537 31.705 160.067 31.9181 160.801 31.9181C161.365 31.9181 161.828 31.7663 162.189 31.4655C162.562 31.1661 162.742 30.6811 162.753 30.0078H160.812V29.3656H163.544V32.4321H163.002L162.799 31.6924C162.505 31.9814 162.257 32.1833 162.042 32.2936C161.67 32.4882 161.196 32.5829 160.631 32.5829C159.886 32.5829 159.254 32.3633 158.724 31.924C158.148 31.3717 157.866 30.6161 157.866 29.6527C157.866 28.6931 158.137 27.9306 158.701 27.3634C159.244 26.8221 159.932 26.5513 160.79 26.5513H160.79ZM172.776 30.1226L170.429 26.7023H171.411L173.194 29.4557L174.978 26.7023H175.971L173.624 30.1224V32.4326H172.777V30.1226" fill="black"/>
<path d="M1.7498 5.18609C1.62701 4.7262 1.46206 3.6273 1.46206 3.6273C1.23301 2.7326 1.7139 2.489 1.7139 2.489C1.7139 2.489 6.08154 0.387461 14.1178 0.203085C16.5388 0.145829 20.7409 0.07938 24.9406 1.39155C25.223 1.49857 25.2905 1.70475 25.4022 2.08886C25.5422 2.56832 25.6054 2.99288 25.6708 3.41955C25.8232 4.41234 25.863 4.98254 25.8311 5.53409C25.8073 5.92845 25.3311 6.6255 25.312 6.82236C25.2441 7.49866 25.5171 10.1384 25.4134 11.4278C25.3094 12.72 24.7667 17.0485 23.6448 19.8873C22.4607 22.8818 20.4169 22.3929 19.3797 22.3929L24.2827 32.5379L0.344727 32.52L3.88533 14.8478C3.88533 14.8478 3.93946 14.4004 3.50828 14.1516C2.55817 13.6042 1.79396 12.7356 1.79396 12.7356C1.79396 12.7356 1.30993 12.232 0.765508 9.33204C0.765508 9.33204 0.305269 6.60712 0.816503 6.01066C1.05353 5.73488 1.62359 5.4662 1.79367 5.37296L1.74994 5.18609" fill="black"/>
<path d="M15.9416 14.8693C15.9416 14.8693 19.1583 14.3211 22.5285 15.1336C22.5285 15.1336 23.2507 15.6852 23.1741 16.1377C23.1741 16.1377 17.9891 16.3991 15.9416 14.8693ZM16.0544 20.0418C16.0544 20.0418 16.9618 16.4176 23.0128 16.9203C23.0128 16.9203 23.4314 17.2312 22.259 18.3133C20.865 19.5965 18.313 20.5747 16.0544 20.0418ZM20.8931 9.77058L19.3726 9.43676C19.3726 9.43676 18.9835 9.42757 18.8806 9.61996C18.7758 9.81142 18.4741 10.8947 18.4741 10.8947C18.4741 10.8947 18.4549 10.9759 18.5329 11.0498C18.6108 11.1207 22.2856 13.5709 22.2856 13.5709C22.2856 13.5709 19.1909 13.3017 18.2315 13.5168C17.2733 13.7323 15.3613 14.6646 14.1176 14.8559C12.8726 15.0453 8.29146 15.5 8.00586 15.5241L6.19083 8.27246C6.19083 8.27246 5.94953 6.48688 3.95161 6.54308C2.44825 6.58563 2.21336 6.94572 2.13658 7.10094C1.98886 7.39746 2.13658 7.65958 2.13658 7.65958L7.09835 15.4126C7.09835 15.4126 3.76315 13.9163 2.43927 12.2891C1.71352 11.3974 1.04759 7.10107 1.53176 6.37565C1.96408 5.72665 4.67836 5.20426 5.8286 5.31654C6.38726 5.4166 6.88254 5.90144 7.21928 6.26573C7.32312 6.37604 7.38167 6.31445 7.46186 6.43212C7.46186 6.43212 7.16273 4.77365 6.00936 4.70287C4.34347 4.59873 2.56121 5.15002 2.56121 5.15002C2.56121 5.15002 2.42674 5.1357 2.36891 4.96512C2.28899 4.7248 2.10823 3.27934 2.10823 3.27934C2.10823 3.27934 2.17945 2.98163 2.43927 2.86095C2.43927 2.86095 7.12527 0.82874 14.1774 0.85356C15.009 0.855923 21.6298 0.757826 24.7666 2.02535C25.0429 2.22706 24.8659 3.2033 24.7258 3.7517C24.6174 4.17207 24.182 4.27489 24.182 4.27489C23.6988 4.3852 23.4967 4.75776 23.4967 4.75776C23.4967 4.75776 24.1705 10.5431 24.2224 10.7836C24.2743 11.0219 24.0411 11.0615 23.3909 11.1019C23.106 11.1197 19.744 11.1738 19.744 11.1738C19.744 11.1738 19.051 11.1094 19.0792 10.7265C19.0996 10.4477 19.1999 9.92738 19.3816 9.92738H20.0272C20.0272 9.92738 21.3895 9.92475 20.8931 9.77071V9.77058ZM14.8433 2.65661C11.8187 3.82734 9.33672 6.26534 9.33672 6.26534C9.59739 6.36094 10.1843 6.26534 10.1843 6.26534C12.9077 4.08828 15.1943 3.22996 15.1943 3.22996C17.1301 3.19253 20.5321 4.24771 20.7125 4.20082C20.8039 4.17587 20.8185 3.82406 20.6606 3.77534C20.296 3.66385 19.5557 3.37875 18.1718 3.08419C15.5118 2.51951 14.8433 2.65661 14.8433 2.65661ZM12.4845 6.20808C13.3209 6.54952 14.7871 6.70842 16.1313 6.83974C17.6878 6.98839 19.3209 6.26534 19.3209 6.26534C19.296 6.04997 18.7497 4.83235 18.2577 4.71285C17.7657 4.5923 16.8403 4.70458 15.7521 4.94397C14.6629 5.18324 12.4845 6.20808 12.4845 6.20808ZM24.8874 4.55356C25.1832 4.5961 25.1661 4.62539 25.356 4.76892C25.5432 4.91364 25.497 5.27583 25.3717 5.39139C25.2466 5.50695 25.1301 5.2799 24.1777 5.30603C24.1777 5.30603 24.6099 4.51495 24.8874 4.55356ZM4.69346 14.8965L6.91673 16.3042L10.6075 31.8885H1.22949L4.69346 14.8965ZM10.1018 22.5403C10.1018 22.5403 14.6617 25.176 15.3875 26.1241L15.8726 31.9249H12.5545L10.1016 22.5403H10.1018ZM17.8696 27.8523C17.8696 27.8523 20.5321 30.1384 21.3187 31.925H16.8413L17.8696 27.8522" fill="#FD271A"/>
<path d="M21.6331 5.02896C21.6331 5.02896 21.9243 4.94978 21.991 5.23698C22.3219 6.6408 22.7633 9.70426 22.7633 9.93617C22.7633 10.3785 22.2588 10.0068 22.2588 10.0068L21.6333 5.02896H21.6331ZM12.0466 0.914677C12.0466 0.914677 12.1505 0.885787 12.3401 0.890777C12.3919 0.891696 13.8061 3.10288 13.8061 3.10288C13.7723 3.12704 13.2903 3.37563 13.21 3.42462L12.0466 0.914546V0.914677ZM6.19073 8.27233C6.19073 8.27233 5.67636 6.86024 6.71592 6.63883C7.75633 6.41716 9.1154 6.26942 10.7146 6.34428C10.7146 6.34428 8.07584 6.81047 7.27558 7.10725C6.47633 7.40141 6.19073 8.27233 6.19073 8.27233Z" fill="#FFFEFF"/>
<path d="M5.85462 45.5143C5.01818 45.9118 4.38402 46.0659 3.49559 46.0659C1.16149 46.0659 0 44.6694 0 43.2405C0 41.7642 1.31149 40.3843 3.60955 40.3843C4.44598 40.3843 5.1941 40.5466 5.78468 40.8715V42.1043C5.1243 41.7642 4.4551 41.5362 3.71581 41.5362C2.43936 41.5362 1.54068 42.2343 1.54068 43.2167C1.54068 44.2075 2.43039 44.9129 3.67963 44.9129C4.46407 44.9129 4.99126 44.6858 5.85476 44.3052V45.5143H5.85462ZM13.6187 46.0657C11.4191 46.0657 10.1772 44.6371 10.1772 43.224C10.1772 41.8847 11.357 40.3843 13.6187 40.3843C15.8819 40.3843 17.0522 41.8932 17.0522 43.2238C17.052 44.6454 15.7767 46.0657 13.6187 46.0657ZM13.6187 41.5362C12.4742 41.5362 11.7182 42.2107 11.7182 43.2241C11.7182 44.2396 12.4743 44.9129 13.6187 44.9129C14.7553 44.9129 15.5126 44.2396 15.5126 43.2241C15.5126 42.2106 14.7551 41.5362 13.6187 41.5362ZM26.6842 40.4574H27.9867V45.9927H26.49V42.5341L24.8704 44.2718H24.6411L23.0215 42.5341V45.9927H21.525V40.4576H22.8273L24.7563 42.5101L26.684 40.4576L26.6842 40.4574ZM37.8636 40.4574H39.1673V45.9927H37.6706V42.5341L36.0509 44.2718H35.8218L34.2022 42.5341V45.9927H32.7056V40.4576H34.0082L35.9358 42.5101L37.8636 40.4576V40.4574ZM43.939 40.4574H45.4358V45.9921H43.939V40.4574ZM55.6299 41.4719H53.4548V45.9928H51.9585V41.4719H49.7845V40.4572H55.6299V41.4719ZM65.3489 41.4719H63.1749V45.9928H61.6772V41.4719H59.5035V40.4572H65.3488V41.4719H65.3489ZM74.0916 45.9928H69.6627V40.4574H74.0293V41.472H71.1594V42.6322H73.8976V43.6473H71.1594V44.9784H74.0916V45.9927V45.9928ZM81.2666 40.4574C83.4584 40.4574 84.5849 41.7152 84.5849 43.2324C84.5849 44.8246 83.4932 45.9928 81.0981 45.9928H78.6163V40.4574H81.2666ZM80.1119 44.9783H81.0893C82.5949 44.9783 83.0441 44.0367 83.0441 43.2241C83.0441 42.2752 82.49 41.472 81.0725 41.472H80.1119V44.9783ZM99.0138 41.4719H96.8387V45.9928H95.3419V41.4719H93.168V40.4572H99.0134L99.0137 41.4719H99.0138ZM105.924 46.0657C103.723 46.0657 102.482 44.6371 102.482 43.224C102.482 41.8847 103.661 40.3843 105.924 40.3843C108.188 40.3843 109.358 41.8932 109.358 43.2238C109.358 44.6454 108.081 46.0657 105.924 46.0657ZM105.924 41.5362C104.781 41.5362 104.024 42.2107 104.024 43.2241C104.024 44.2396 104.781 44.9129 105.924 44.9129C107.06 44.9129 107.817 44.2396 107.817 43.2241C107.817 42.2106 107.06 41.5362 105.924 41.5362H105.924ZM124.831 40.4574H126.129V45.9927H124.639V42.5341L123.014 44.2718H122.788L121.163 42.5341V45.9927H119.661V40.4576H120.97L122.901 42.5101L124.831 40.4576V40.4574ZM135.294 45.9928H130.869V40.4574H135.237V41.472H132.359V42.6322H135.101V43.6473H132.359V44.9784H135.294V45.9927V45.9928ZM144.989 40.4574H146.287V45.9927H144.797V42.5341L143.172 44.2718H142.946L141.321 42.5341V45.9927H139.831V40.4576H141.129L143.059 42.5101L144.989 40.4576L144.989 40.4574ZM154.199 46.0657C151.998 46.0657 150.756 44.6371 150.756 43.224C150.756 41.8847 151.93 40.3843 154.199 40.3843C156.456 40.3843 157.63 41.8932 157.63 43.2238C157.63 44.6454 156.355 46.0657 154.199 46.0657ZM154.199 41.5362C153.047 41.5362 152.291 42.2107 152.291 43.2241C152.291 44.2396 153.047 44.9129 154.199 44.9129C155.328 44.9129 156.083 44.2396 156.083 43.2241C156.083 42.2106 155.328 41.5362 154.199 41.5362ZM164.786 40.4574C166.016 40.4574 166.749 41.2209 166.749 42.0481C166.749 42.657 166.411 43.1118 165.722 43.4028C166.332 43.6879 166.524 44.3693 167.37 45.9927H165.723C165.079 44.8077 164.842 43.7453 164.029 43.7453H163.6V45.9927H162.099V40.4576H164.786V40.4574ZM163.601 42.7297H164.391C164.809 42.7297 165.215 42.5676 165.215 42.0963C165.215 41.6832 164.921 41.472 164.357 41.472H163.601V42.7297H163.601ZM172.269 43.4029L169.898 40.4572H171.715L173.014 42.1939L174.334 40.4572H176.14L173.77 43.4029V45.9928H172.269V43.4029ZM176.704 41.61C176.704 40.7767 177.438 40.093 178.363 40.093C179.266 40.093 180 40.7767 180 41.61C180 42.4539 179.266 43.1353 178.363 43.1353C177.438 43.1354 176.704 42.4539 176.704 41.61ZM179.74 41.61C179.74 40.8724 179.165 40.2929 178.363 40.2929C177.551 40.2929 176.964 40.8724 176.964 41.61C176.964 42.3582 177.551 42.9347 178.363 42.9347C179.165 42.9347 179.74 42.3583 179.74 41.61ZM179.176 42.4623H178.905L178.386 41.6809H177.969V42.4623H177.743V40.7633H178.544C179.041 40.7633 179.199 40.9331 179.199 41.2119C179.199 41.5469 178.951 41.6706 178.623 41.6809L179.176 42.4623ZM178.318 41.5144C178.578 41.5144 178.962 41.5553 178.962 41.2107C178.962 40.9436 178.725 40.9113 178.499 40.9113H177.969V41.5148H178.318" fill="black"/>
</svg>
