<svg width="80" height="80" viewBox="0 0 80 80" fill="none" xmlns="http://www.w3.org/2000/svg">
<path d="M21.6001 52.7659C19.8934 52.7659 18.8001 52.2042 18.3201 51.0808L2.00009 15.1319L1.84009 14.6264C1.84009 14.3268 2.00009 14.0646 2.32009 13.84C2.69342 13.5778 3.12009 13.4468 3.60009 13.4468H13.5201C14.2668 13.4468 14.8801 13.5966 15.3601 13.8961C15.8934 14.1957 16.2401 14.5327 16.4001 14.9072L27.7601 40.8578L39.0401 14.9072C39.2001 14.5327 39.5201 14.1957 40.0001 13.8961C40.5334 13.5966 41.1734 13.4468 41.9201 13.4468H51.9201C52.3467 13.4468 52.7201 13.5778 53.0401 13.84C53.4134 14.0646 53.6001 14.3268 53.6001 14.6264L53.4401 15.1319L37.1201 51.0808C36.6401 52.2042 35.5468 52.7659 33.8401 52.7659H21.6001Z" fill="url(#paint0_linear)"/>
<path d="M24.2182 66.383C23.7915 66.383 23.3915 66.2707 23.0182 66.046C22.6982 65.7838 22.5382 65.503 22.5382 65.2034C22.5382 64.9787 22.5649 64.8102 22.6182 64.6979L41.4182 28.6366C41.5782 28.1872 41.9249 27.8128 42.4582 27.5132C42.9915 27.2136 43.6849 27.0638 44.5382 27.0638H56.3782C57.2315 27.0638 57.9249 27.2136 58.4582 27.5132C58.9915 27.8128 59.3382 28.1872 59.4982 28.6366L78.2182 64.6979L78.3782 65.2034C78.3782 65.503 78.1915 65.7838 77.8182 66.046C77.4982 66.2707 77.0982 66.383 76.6182 66.383H66.7782C65.4982 66.383 64.6449 65.9898 64.2182 65.2034L61.0982 59.4741H39.7382L36.6982 65.2034C36.2715 65.9898 35.3915 66.383 34.0582 66.383H24.2182ZM57.8982 51.3855L50.4582 36.5566L43.0182 51.3855H57.8982Z" fill="url(#paint1_linear)"/>
<defs>
<linearGradient id="paint0_linear" x1="27.2728" y1="-2.75935e-05" x2="27.2728" y2="66.3829" gradientUnits="userSpaceOnUse">
<stop stop-color="#27AE60"/>
<stop offset="1" stop-color="#6FCF97"/>
</linearGradient>
<linearGradient id="paint1_linear" x1="50.9091" y1="13.617" x2="50.9091" y2="80" gradientUnits="userSpaceOnUse">
<stop stop-color="#59E1FF"/>
<stop offset="1" stop-color="#356666"/>
</linearGradient>
</defs>
</svg>
